<svg width="60" height="60" viewBox="0 0 60 60" fill="none" xmlns="http://www.w3.org/2000/svg">
<path d="M46.4408 33.632C44.7903 25.3257 52.6744 20.4542 52.6744 20.4542C52.6744 20.4542 49.6027 16.0101 44.4402 14.8668C39.2803 13.721 36.6978 15.1525 34.1203 16.2262C31.5404 17.3026 30.253 17.3026 30.253 17.3026C26.5299 17.3026 23.8082 13.3605 16.7147 15.1552C11.8277 16.3885 6.68317 22.0299 5.75367 28.7631C4.82417 35.4988 6.82999 44.0935 10.6973 50.7546C14.5646 57.4208 18.5042 59.926 21.3003 59.9981C24.0966 60.0676 26.8877 57.9949 30.253 57.4902C33.6209 56.9907 35.6936 58.7108 38.997 59.6403C42.2876 60.5672 43.4411 59.7072 47.2312 56.4835C51.0316 53.2598 54.4716 44.0137 54.4716 44.0137C54.4716 44.0137 48.0912 41.9435 46.4408 33.632Z" fill="white"/>
<path d="M39.1335 9.49327C42.7896 5.76763 41.5512 0 41.5512 0C41.5512 0 36.4171 0.901211 32.9771 4.48015C29.5397 8.06172 30.1087 13.7186 30.1087 13.7186C30.1087 13.7186 35.4772 13.2165 39.1335 9.49327Z" fill="white"/>
</svg>
