<svg width="120" height="42" viewBox="0 0 120 42" fill="none" xmlns="http://www.w3.org/2000/svg">
<path d="M28.402 3.43C26.1625 1.8344 23.587 0.77357 20.8734 0.329079C18.1599 -0.115413 15.3805 0.0682684 12.749 0.866001L0.0940018 4.687V11.977L28.402 3.43ZM34.606 11.4C33.721 9.11281 32.365 7.03725 30.626 5.308L0.0950018 14.526V21.816L34.607 11.399L34.606 11.4ZM35.478 20.974C35.928 18.635 35.904 16.174 35.329 13.728L0.0940018 24.37V31.66L35.478 20.974ZM23.174 34.531C28.719 32.858 32.842 28.753 34.7 23.763L0.0940018 34.208V41.498L23.174 34.531ZM44.575 6.052H49.104C52.87 6.052 55.154 8.366 55.154 11.967C55.154 15.567 52.87 17.882 49.104 17.882H44.574L44.575 6.052ZM48.945 15.201C50.937 15.201 52.047 13.948 52.047 11.962C52.047 9.956 50.932 8.704 48.945 8.704H47.657V15.196H48.945V15.201ZM60.49 18.073C57.834 18.073 56.001 16.223 56.001 13.543C56.001 10.866 57.834 9.017 60.491 9.017C63.166 9.017 64.98 10.867 64.98 13.542C64.98 16.223 63.166 18.073 60.49 18.073ZM60.49 11.503C59.554 11.503 59.029 12.349 59.029 13.543C59.029 14.736 59.554 15.568 60.49 15.568C61.447 15.568 61.972 14.741 61.972 13.542C61.972 12.353 61.447 11.502 60.49 11.502V11.503ZM76.629 9.017C78.462 9.017 79.597 10.25 79.597 12.197V17.882H76.535V12.931C76.535 12.197 76.222 11.678 75.539 11.678C75.013 11.678 74.562 12.006 74.409 12.603V17.882H71.366V12.931C71.366 12.197 71.054 11.678 70.371 11.678C69.845 11.678 69.375 12.006 69.241 12.603V17.882H66.179V9.212H69.241V9.927C69.691 9.389 70.529 9.022 71.505 9.022C72.62 9.022 73.398 9.447 73.923 10.064C74.443 9.521 75.34 9.017 76.629 9.017ZM84.319 17.882H81.257V9.212H84.319V17.882ZM85.979 9.213H89.041V9.966C89.526 9.428 90.389 9.022 91.399 9.022C93.352 9.022 94.501 10.274 94.501 12.202V17.887H91.454V12.93C91.454 12.216 91.082 11.697 90.304 11.697C89.7 11.697 89.194 12.044 89.036 12.641V17.881H85.974V9.211H85.979V9.213ZM99.223 17.882H96.161V9.212H99.223V17.882ZM104.902 18.073C102.246 18.073 100.412 16.223 100.412 13.543C100.412 10.866 102.246 9.017 104.902 9.017C107.577 9.017 109.391 10.867 109.391 13.542C109.391 16.223 107.577 18.072 104.901 18.072L104.902 18.073ZM104.902 11.503C103.965 11.503 103.44 12.349 103.44 13.543C103.44 14.736 103.965 15.568 104.902 15.568C105.858 15.568 106.383 14.741 106.383 13.542C106.383 12.353 105.858 11.502 104.902 11.502V11.503ZM110.58 9.213H113.642V9.966C114.128 9.428 114.99 9.022 116.001 9.022C117.953 9.022 119.103 10.274 119.103 12.202V17.887H116.06V12.93C116.06 12.216 115.689 11.697 114.91 11.697C114.306 11.697 113.796 12.044 113.642 12.641V17.881H110.58V9.211V9.213ZM96.161 6.052H99.223V8.21H96.161V6.052ZM81.257 6.052H84.319V8.21H81.257V6.052ZM54.718 23.376H57.78V24.13C58.266 23.592 59.128 23.185 60.143 23.185C62.096 23.185 63.245 24.438 63.245 26.365V32.051H60.203V27.095C60.203 26.38 59.831 25.862 59.053 25.862C58.449 25.862 57.939 26.209 57.785 26.806V32.046H54.723V23.376H54.718ZM80.42 26.033C79.998 25.857 79.68 25.778 79.205 25.778C78.472 25.778 77.704 26.185 77.59 26.962V32.051H74.528V23.376H77.59V24.149C78.021 23.572 78.7 23.185 79.582 23.185C79.973 23.185 80.285 23.264 80.419 23.337L80.42 26.033ZM92.93 35.373L94.308 31.811L91.028 23.351H94.208L95.888 28.283L97.528 23.352H100.571L95.953 35.372H92.931L92.93 35.373ZM90.052 23.357H87.029V24.012C86.638 23.552 85.914 23.166 84.963 23.166C82.485 23.166 81.078 25.035 81.078 27.422C81.078 29.81 82.485 31.698 84.963 31.698C85.825 31.698 86.494 31.371 86.905 30.979L86.985 30.901V31.556C86.94 32.706 85.944 33.235 84.805 33.235C83.595 33.235 82.639 32.926 81.742 32.178V34.805C82.585 35.377 83.675 35.534 84.903 35.534C87.713 35.534 90.047 34.154 90.047 30.954L90.052 23.357ZM85.676 29.423C84.467 29.423 83.947 28.518 83.947 27.417C83.947 26.317 84.427 25.456 85.567 25.456C86.152 25.456 86.791 25.896 87.024 26.282V28.577C86.791 28.963 86.281 29.423 85.676 29.423ZM47.657 27.33H52.31V24.727H47.657V22.877H53.137V20.221H44.575V32.051H53.137V29.37H47.657V27.33ZM68.894 23.137C66.278 23.137 64.43 25.157 64.43 27.707C64.43 30.862 66.337 32.29 69.266 32.29C70.569 32.29 71.619 32.021 72.432 31.64V29.502C71.6207 29.9411 70.7135 30.1729 69.791 30.177C68.403 30.177 67.467 29.551 67.407 28.45H73.339C73.353 28.24 73.353 28.117 73.353 27.921C73.358 25.348 71.951 23.137 68.894 23.137ZM67.388 26.791C67.497 25.778 68.245 25.319 68.908 25.319C69.573 25.319 70.366 25.774 70.489 26.791H67.388ZM103.53 25.75C103.327 25.7516 103.127 25.7132 102.939 25.637C102.751 25.5608 102.58 25.4483 102.436 25.306C102.292 25.1637 102.177 24.9944 102.099 24.8077C102.02 24.621 101.979 24.4206 101.978 24.218C101.979 24.0155 102.02 23.8152 102.099 23.6286C102.177 23.4419 102.292 23.2726 102.436 23.1303C102.58 22.988 102.751 22.8755 102.938 22.7993C103.126 22.7231 103.327 22.6846 103.529 22.686C104.386 22.686 105.08 23.371 105.08 24.218C105.08 25.059 104.386 25.75 103.53 25.75ZM103.53 22.466C102.553 22.466 101.76 23.249 101.76 24.213C101.76 25.177 102.553 25.959 103.53 25.959C104.51 25.959 105.303 25.177 105.303 24.213C105.298 23.7465 105.109 23.301 104.776 22.9737C104.444 22.6464 103.996 22.4639 103.53 22.466Z" fill="white"/>
</svg>
