<svg xmlns="http://www.w3.org/2000/svg" width="120" height="42" viewBox="0 0 120 42">
    <g fill="#FFF" fill-rule="nonzero">
        <path d="M28.402 3.43A17.984 17.984 0 0 0 12.749.866L.094 4.687v7.29L28.402 3.43zM34.606 11.4a17.494 17.494 0 0 0-3.98-6.092L.095 14.526v7.29l34.512-10.417zM35.478 20.974c.45-2.339.426-4.8-.149-7.246L.094 24.37v7.29l35.384-10.685zM23.174 34.531c5.545-1.673 9.668-5.778 11.526-10.768L.094 34.208v7.29l23.08-6.967zM44.575 6.052h4.529c3.766 0 6.05 2.314 6.05 5.915 0 3.6-2.284 5.915-6.05 5.915h-4.53V6.052zm4.37 9.149c1.992 0 3.102-1.253 3.102-3.239 0-2.006-1.115-3.258-3.102-3.258h-1.288v6.492h1.288v.005zM60.49 18.073c-2.656 0-4.489-1.85-4.489-4.53 0-2.677 1.833-4.526 4.49-4.526 2.675 0 4.489 1.85 4.489 4.525 0 2.681-1.814 4.53-4.49 4.53zm0-6.57c-.936 0-1.461.846-1.461 2.04 0 1.193.525 2.025 1.461 2.025.957 0 1.482-.827 1.482-2.026 0-1.189-.525-2.04-1.482-2.04zM76.629 9.017c1.833 0 2.968 1.233 2.968 3.18v5.685h-3.062v-4.951c0-.734-.313-1.253-.996-1.253-.526 0-.977.328-1.13.925v5.279h-3.043v-4.951c0-.734-.312-1.253-.995-1.253-.526 0-.996.328-1.13.925v5.279h-3.062v-8.67h3.062v.715c.45-.538 1.288-.905 2.264-.905 1.115 0 1.893.425 2.418 1.042.52-.543 1.417-1.047 2.706-1.047zM84.319 17.882h-3.062v-8.67h3.062zM85.979 9.213h3.062v.753c.485-.538 1.348-.944 2.358-.944 1.953 0 3.102 1.252 3.102 3.18v5.685h-3.047V12.93c0-.714-.372-1.233-1.15-1.233-.604 0-1.11.347-1.268.944v5.24h-3.062v-8.67h.005zM99.223 17.882h-3.062v-8.67h3.062zM104.902 18.073c-2.656 0-4.49-1.85-4.49-4.53 0-2.677 1.834-4.526 4.49-4.526 2.675 0 4.489 1.85 4.489 4.525 0 2.681-1.814 4.53-4.49 4.53zm0-6.57c-.937 0-1.462.846-1.462 2.04 0 1.193.525 2.025 1.462 2.025.956 0 1.481-.827 1.481-2.026 0-1.189-.525-2.04-1.481-2.04zM110.58 9.213h3.062v.753c.486-.538 1.348-.944 2.359-.944 1.952 0 3.102 1.252 3.102 3.18v5.685h-3.043V12.93c0-.714-.371-1.233-1.15-1.233-.604 0-1.114.347-1.268.944v5.24h-3.062v-8.67zM96.161 6.052h3.062V8.21h-3.062zM81.257 6.052h3.062V8.21h-3.062zM54.718 23.376h3.062v.754c.486-.538 1.348-.945 2.363-.945 1.953 0 3.102 1.253 3.102 3.18v5.686h-3.042v-4.956c0-.715-.372-1.233-1.15-1.233-.604 0-1.114.347-1.268.944v5.24h-3.062v-8.67h-.005zM80.42 26.033c-.422-.176-.74-.255-1.215-.255-.733 0-1.501.407-1.615 1.184v5.089h-3.062v-8.675h3.062v.773c.431-.577 1.11-.964 1.992-.964.391 0 .703.079.837.152v2.696zM92.93 35.373l1.378-3.562-3.28-8.46h3.18l1.68 4.932 1.64-4.931h3.043l-4.618 12.02h-3.022zM90.052 23.357h-3.023v.655c-.391-.46-1.115-.846-2.066-.846-2.478 0-3.885 1.869-3.885 4.256 0 2.388 1.407 4.276 3.885 4.276.862 0 1.531-.327 1.942-.719l.08-.078v.655c-.045 1.15-1.041 1.679-2.18 1.679-1.21 0-2.166-.309-3.063-1.057v2.627c.843.572 1.933.729 3.161.729 2.81 0 5.144-1.38 5.144-4.58l.005-7.597zm-4.376 6.066c-1.209 0-1.729-.905-1.729-2.006 0-1.1.48-1.961 1.62-1.961.585 0 1.224.44 1.457.826v2.295c-.233.386-.743.846-1.348.846zM47.657 27.33h4.653v-2.603h-4.653v-1.85h5.48v-2.656h-8.562v11.83h8.562V29.37h-5.48zM68.894 23.137c-2.616 0-4.464 2.02-4.464 4.57 0 3.155 1.907 4.583 4.836 4.583 1.303 0 2.353-.269 3.166-.65v-2.138a5.601 5.601 0 0 1-2.641.675c-1.388 0-2.324-.626-2.384-1.727h5.932c.014-.21.014-.333.014-.529.005-2.573-1.402-4.784-4.459-4.784zm-1.506 3.654c.109-1.013.857-1.472 1.52-1.472.665 0 1.458.455 1.581 1.472h-3.101zM103.53 25.75a1.54 1.54 0 0 1-1.552-1.532 1.54 1.54 0 0 1 1.551-1.532c.857 0 1.551.685 1.551 1.532 0 .841-.694 1.531-1.55 1.531m0-3.283c-.977 0-1.77.783-1.77 1.747 0 .964.793 1.746 1.77 1.746.98 0 1.773-.782 1.773-1.746a1.766 1.766 0 0 0-1.774-1.747"/>
        <path d="M103.435 24.08h-.342v-.533h.51c.214 0 .466.03.466.255.005.318-.386.279-.634.279m.837-.274c0-.284-.153-.45-.614-.45h-.753v1.702h.193v-.787h.406l.496.787h.253l-.526-.787c.308-.005.545-.128.545-.465"/>
    </g>
</svg>
